<?xml version="1.0" encoding="UTF-8"?>
<svg xmlns="http://www.w3.org/2000/svg" xmlns:xlink="http://www.w3.org/1999/xlink" width="504pt" height="360pt" viewBox="0 0 504 360" version="1.1">
<defs>
<clipPath id="clip1">
  <path d="M 59.039062 59.039062 L 473.757812 59.039062 L 473.757812 286.558594 L 59.039062 286.558594 Z M 59.039062 59.039062 "/>
</clipPath>
</defs>
<g id="surface19">
<rect x="0" y="0" width="504" height="360" style="fill:rgb(100%,100%,100%);fill-opacity:1;stroke:none;"/>
<g clip-path="url(#clip1)" clip-rule="nonzero">
<path style="fill-rule:nonzero;fill:rgb(100%,100%,100%);fill-opacity:1;stroke-width:0.75;stroke-linecap:round;stroke-linejoin:round;stroke:rgb(100%,100%,100%);stroke-opacity:1;stroke-miterlimit:10;" d="M 59.039062 286.558594 L 473.757812 286.558594 L 473.757812 59.039062 L 59.039062 59.039062 Z M 59.039062 286.558594 "/>
</g>
<path style="fill:none;stroke-width:0.75;stroke-linecap:round;stroke-linejoin:round;stroke:rgb(0%,0%,0%);stroke-opacity:1;stroke-miterlimit:10;" d="M 220.304688 183.242188 L 209.59375 178.234375 L 200.828125 178.570312 L 203.75 165.554688 L 200.828125 152.542969 L 212.710938 151.542969 L 227.902344 166.554688 Z M 264.296875 194.484375 L 264.320312 194.488281 L 266.40625 180.390625 L 256.914062 165.429688 L 256.695312 165.089844 L 239.488281 160.816406 L 236.113281 154.246094 L 241.261719 143.390625 L 236.601562 136.703125 L 228.972656 148.183594 L 228.140625 124.777344 L 220.984375 112.390625 L 226.128906 87.285156 L 237.140625 67.585938 L 248.457031 69.511719 L 265.554688 67.464844 L 250.40625 93.742188 L 264.84375 90.414062 L 280.375 90.542969 L 276.679688 110.328125 L 263.9375 132.09375 L 278.59375 133.640625 L 279.714844 136.195312 L 292.339844 164.847656 L 302.039062 168.746094 L 310.761719 196.417969 L 314.800781 206.007812 L 331.96875 210.632812 L 330.25 226.164062 L 323.027344 233.285156 L 328.6875 245.847656 L 315.941406 258.566406 L 296.980469 258.34375 L 272.851562 265.019531 L 266.246094 260.238281 L 256.875 271.617188 L 243.765625 268.859375 L 233.808594 278.132812 L 226.277344 273.285156 L 247.058594 247.777344 L 259.746094 242.53125 L 259.632812 242.511719 L 237.503906 238.464844 L 233.492188 228.800781 L 248.300781 221.273438 L 240.539062 208.195312 L 243.234375 192.289062 Z M 264.296875 194.484375 "/>
</g>
</svg>
